<svg width="215" height="200" viewBox="0 0 215 200" fill="none" xmlns="http://www.w3.org/2000/svg">
<g id="Music Player pause" clip-path="url(#clip0_0_1)">
<rect width="1920" height="1080" transform="translate(-666 -467)" fill="#E3E3E3"/>
<g id="Background image">
<path id="Polygon 2" d="M364.836 613L307 420L-88.5 420L-156 613H-474L-419.5 474.5L1254 -467L1254 112.5L364.836 613Z" fill="#05AC6A" fill-opacity="0.15"/>
<path id="Logo" d="M268.453 -467L683.069 613H364.875L307.022 420.143H-88.3102L-155.806 613H-474L-49.7412 -467H268.453Z" fill="#0CB673" fill-opacity="0.3"/>
</g>
<g id="Player">
<g id="Rectangle 1" filter="url(#filter0_d_0_1)">
<rect x="-140" width="580" height="200" rx="8" fill="#FFFDFD"/>
</g>
<g id="Volume">
<rect id="Volume control" x="-14" y="32" width="260" height="2" fill="url(#paint0_linear_0_1)"/>
<circle id="Ellipse 3" cx="44" cy="33" r="6" fill="#05AC6A"/>
</g>
<path id="&#208;&#157;&#208;&#176;&#208;&#183;&#208;&#178;&#208;&#176;&#208;&#189;&#208;&#184;&#208;&#181; &#208;&#191;&#208;&#181;&#209;&#129;&#208;&#189;&#208;&#184;" d="M32.6914 85.2711V86.5016H22.3203V85.2711H32.6914ZM22.6602 77.6188V94.6813H21.2188V77.6188H22.6602ZM33.8516 77.6188V94.6813H32.4102V77.6188H33.8516ZM45.5938 92.4078V85.8688C45.5938 85.2672 45.4688 84.7477 45.2188 84.3102C44.9688 83.8727 44.6016 83.5367 44.1172 83.3024C43.6328 83.068 43.0352 82.9508 42.3242 82.9508C41.668 82.9508 41.082 83.068 40.5664 83.3024C40.0586 83.5289 39.6562 83.8375 39.3594 84.2281C39.0703 84.6109 38.9258 85.0367 38.9258 85.5055L37.5195 85.4938C37.5195 85.0172 37.6367 84.5563 37.8711 84.1109C38.1055 83.6656 38.4375 83.2672 38.8672 82.9156C39.2969 82.5641 39.8086 82.2867 40.4023 82.0836C41.0039 81.8727 41.6641 81.7672 42.3828 81.7672C43.2891 81.7672 44.0859 81.9195 44.7734 82.2242C45.4688 82.5289 46.0117 82.9859 46.4023 83.5953C46.793 84.2047 46.9883 84.9703 46.9883 85.8922V92.0211C46.9883 92.4586 47.0195 92.9117 47.082 93.3805C47.1523 93.8492 47.25 94.2359 47.375 94.5406V94.6813H45.8867C45.793 94.4 45.7188 94.0484 45.6641 93.6266C45.6172 93.1969 45.5938 92.7906 45.5938 92.4078ZM45.9219 87.2984L45.9453 88.3766H43.1914C42.4727 88.3766 41.8281 88.443 41.2578 88.5758C40.6953 88.7008 40.2188 88.8883 39.8281 89.1383C39.4375 89.3805 39.1367 89.6734 38.9258 90.0172C38.7227 90.3609 38.6211 90.7516 38.6211 91.1891C38.6211 91.6422 38.7344 92.0563 38.9609 92.4313C39.1953 92.8063 39.5234 93.107 39.9453 93.3336C40.375 93.5524 40.8828 93.6617 41.4688 93.6617C42.25 93.6617 42.9375 93.5172 43.5312 93.2281C44.1328 92.9391 44.6289 92.5602 45.0195 92.0914C45.4102 91.6227 45.6719 91.1109 45.8047 90.5563L46.4141 91.3649C46.3125 91.7555 46.125 92.1578 45.8516 92.5719C45.5859 92.9781 45.2383 93.3609 44.8086 93.7203C44.3789 94.0719 43.8711 94.3609 43.2852 94.5875C42.707 94.8063 42.0508 94.9156 41.3164 94.9156C40.4883 94.9156 39.7656 94.7594 39.1484 94.4469C38.5391 94.1344 38.0625 93.7086 37.7188 93.1695C37.3828 92.6227 37.2148 92.0055 37.2148 91.318C37.2148 90.693 37.3477 90.1344 37.6133 89.6422C37.8789 89.1422 38.2617 88.7203 38.7617 88.3766C39.2695 88.025 39.8789 87.7594 40.5898 87.5797C41.3086 87.3922 42.1133 87.2984 43.0039 87.2984H45.9219ZM55.1328 88.5406H53.0938V87.5914H55.0156C55.7969 87.5914 56.418 87.5016 56.8789 87.3219C57.3398 87.1344 57.6719 86.8727 57.875 86.5367C58.0781 86.2008 58.1797 85.8063 58.1797 85.3531C58.1797 84.9156 58.0703 84.5172 57.8516 84.1578C57.6406 83.7984 57.3008 83.5094 56.832 83.2906C56.3633 83.0719 55.7422 82.9625 54.9688 82.9625C54.375 82.9625 53.8281 83.068 53.3281 83.2789C52.8281 83.4899 52.4258 83.7789 52.1211 84.1461C51.8242 84.5133 51.6758 84.9391 51.6758 85.4234H50.2695C50.2695 84.6734 50.4883 84.025 50.9258 83.4781C51.3633 82.9313 51.9375 82.5094 52.6484 82.2125C53.3672 81.9156 54.1406 81.7672 54.9688 81.7672C55.6875 81.7672 56.332 81.8453 56.9023 82.0016C57.4727 82.1578 57.957 82.3883 58.3555 82.693C58.7539 82.9977 59.0586 83.3766 59.2695 83.8297C59.4805 84.275 59.5859 84.7867 59.5859 85.3649C59.5859 85.8024 59.4844 86.2125 59.2812 86.5953C59.0859 86.9781 58.7969 87.318 58.4141 87.6149C58.0391 87.9039 57.5742 88.1305 57.0195 88.2945C56.4727 88.4586 55.8438 88.5406 55.1328 88.5406ZM53.0938 87.8961H55.1328C55.9141 87.8961 56.5977 87.9703 57.1836 88.1188C57.7695 88.2594 58.2578 88.4703 58.6484 88.7516C59.0391 89.0328 59.3281 89.3805 59.5156 89.7945C59.7109 90.2008 59.8086 90.6695 59.8086 91.2008C59.8086 91.7789 59.6914 92.2984 59.457 92.7594C59.2305 93.2203 58.9023 93.6109 58.4727 93.9313C58.043 94.2516 57.5312 94.4938 56.9375 94.6578C56.3438 94.8219 55.6875 94.9039 54.9688 94.9039C54.1953 94.9039 53.4297 94.7672 52.6719 94.4938C51.9219 94.2203 51.3008 93.7984 50.8086 93.2281C50.3164 92.6578 50.0703 91.9313 50.0703 91.0484H51.4648C51.4648 91.5328 51.6172 91.9781 51.9219 92.3844C52.2266 92.7906 52.6406 93.1149 53.1641 93.357C53.6953 93.5992 54.2969 93.7203 54.9688 93.7203C55.7266 93.7203 56.3594 93.6149 56.8672 93.4039C57.375 93.1852 57.7578 92.8883 58.0156 92.5133C58.2734 92.1383 58.4023 91.7086 58.4023 91.2242C58.4023 90.6539 58.2773 90.193 58.0273 89.8414C57.7852 89.4899 57.4141 89.232 56.9141 89.068C56.4141 88.9039 55.7812 88.8219 55.0156 88.8219H53.0938V87.8961ZM68.5156 88.8336H64.0625L64.0391 87.6617H67.8359C68.6016 87.6617 69.2383 87.5797 69.7461 87.4156C70.2617 87.2438 70.6484 86.9899 70.9062 86.6539C71.1719 86.318 71.3047 85.9039 71.3047 85.4117C71.3047 85.0367 71.2266 84.7086 71.0703 84.4274C70.9219 84.1461 70.6953 83.9156 70.3906 83.7359C70.0938 83.5563 69.7188 83.4234 69.2656 83.3375C68.8203 83.2438 68.3008 83.1969 67.707 83.1969H64.4609V94.6813H63.0664V82.0016H67.707C68.4805 82.0016 69.1719 82.0719 69.7812 82.2125C70.3984 82.3453 70.9258 82.5484 71.3633 82.8219C71.8008 83.0953 72.1328 83.4469 72.3594 83.8766C72.5938 84.2984 72.7109 84.7984 72.7109 85.3766C72.7109 85.7672 72.6367 86.1344 72.4883 86.4781C72.3398 86.8141 72.1211 87.1188 71.832 87.3922C71.5508 87.6578 71.2031 87.8766 70.7891 88.0484C70.375 88.2125 69.8984 88.3141 69.3594 88.3531L68.5156 88.8336ZM68.5156 94.6813H63.6289L64.168 93.4859H68.5156C69.2188 93.4859 69.8164 93.3961 70.3086 93.2164C70.8008 93.0367 71.1719 92.7711 71.4219 92.4195C71.6797 92.068 71.8086 91.6422 71.8086 91.1422C71.8086 90.6734 71.6797 90.2672 71.4219 89.9234C71.1719 89.5797 70.8008 89.3141 70.3086 89.1266C69.8164 88.9313 69.2188 88.8336 68.5156 88.8336H65.2812L65.3047 87.6617H69.4648L70.0625 88.107C70.7031 88.1617 71.2578 88.3336 71.7266 88.6227C72.1953 88.9117 72.5586 89.2789 72.8164 89.7242C73.0742 90.1617 73.2031 90.6422 73.2031 91.1656C73.2031 91.7438 73.0938 92.2555 72.875 92.7008C72.6562 93.1383 72.3398 93.5055 71.9258 93.8024C71.5195 94.0914 71.0273 94.3102 70.4492 94.4586C69.8711 94.607 69.2266 94.6813 68.5156 94.6813ZM84.0547 92.4078V85.8688C84.0547 85.2672 83.9297 84.7477 83.6797 84.3102C83.4297 83.8727 83.0625 83.5367 82.5781 83.3024C82.0938 83.068 81.4961 82.9508 80.7852 82.9508C80.1289 82.9508 79.543 83.068 79.0273 83.3024C78.5195 83.5289 78.1172 83.8375 77.8203 84.2281C77.5312 84.6109 77.3867 85.0367 77.3867 85.5055L75.9805 85.4938C75.9805 85.0172 76.0977 84.5563 76.332 84.1109C76.5664 83.6656 76.8984 83.2672 77.3281 82.9156C77.7578 82.5641 78.2695 82.2867 78.8633 82.0836C79.4648 81.8727 80.125 81.7672 80.8438 81.7672C81.75 81.7672 82.5469 81.9195 83.2344 82.2242C83.9297 82.5289 84.4727 82.9859 84.8633 83.5953C85.2539 84.2047 85.4492 84.9703 85.4492 85.8922V92.0211C85.4492 92.4586 85.4805 92.9117 85.543 93.3805C85.6133 93.8492 85.7109 94.2359 85.8359 94.5406V94.6813H84.3477C84.2539 94.4 84.1797 94.0484 84.125 93.6266C84.0781 93.1969 84.0547 92.7906 84.0547 92.4078ZM84.3828 87.2984L84.4062 88.3766H81.6523C80.9336 88.3766 80.2891 88.443 79.7188 88.5758C79.1562 88.7008 78.6797 88.8883 78.2891 89.1383C77.8984 89.3805 77.5977 89.6734 77.3867 90.0172C77.1836 90.3609 77.082 90.7516 77.082 91.1891C77.082 91.6422 77.1953 92.0563 77.4219 92.4313C77.6562 92.8063 77.9844 93.107 78.4062 93.3336C78.8359 93.5524 79.3438 93.6617 79.9297 93.6617C80.7109 93.6617 81.3984 93.5172 81.9922 93.2281C82.5938 92.9391 83.0898 92.5602 83.4805 92.0914C83.8711 91.6227 84.1328 91.1109 84.2656 90.5563L84.875 91.3649C84.7734 91.7555 84.5859 92.1578 84.3125 92.5719C84.0469 92.9781 83.6992 93.3609 83.2695 93.7203C82.8398 94.0719 82.332 94.3609 81.7461 94.5875C81.168 94.8063 80.5117 94.9156 79.7773 94.9156C78.9492 94.9156 78.2266 94.7594 77.6094 94.4469C77 94.1344 76.5234 93.7086 76.1797 93.1695C75.8438 92.6227 75.6758 92.0055 75.6758 91.318C75.6758 90.693 75.8086 90.1344 76.0742 89.6422C76.3398 89.1422 76.7227 88.7203 77.2227 88.3766C77.7305 88.025 78.3398 87.7594 79.0508 87.5797C79.7695 87.3922 80.5742 87.2984 81.4648 87.2984H84.3828ZM97.8594 87.6734V88.8688H90.3359V87.6734H97.8594ZM90.6992 82.0016V94.6813H89.3047V82.0016H90.6992ZM98.9375 82.0016V94.6813H97.5312V82.0016H98.9375ZM104.188 92.4078L111.043 82.0016H112.449V94.6813H111.043V84.275L104.188 94.6813H102.805V82.0016H104.188V92.4078ZM121.109 94.9156C120.281 94.9156 119.52 94.7633 118.824 94.4586C118.137 94.1539 117.535 93.7242 117.02 93.1695C116.512 92.6149 116.117 91.9586 115.836 91.2008C115.562 90.4352 115.426 89.5992 115.426 88.693V88.1891C115.426 87.2125 115.57 86.3297 115.859 85.5406C116.148 84.7516 116.547 84.0758 117.055 83.5133C117.562 82.9508 118.141 82.5211 118.789 82.2242C119.445 81.9195 120.133 81.7672 120.852 81.7672C121.656 81.7672 122.371 81.9117 122.996 82.2008C123.621 82.482 124.145 82.8844 124.566 83.4078C124.996 83.9234 125.32 84.5367 125.539 85.2477C125.758 85.9508 125.867 86.7281 125.867 87.5797V88.4352H116.27V87.2399H124.473V87.0758C124.457 86.3649 124.312 85.7008 124.039 85.0836C123.773 84.4586 123.375 83.9508 122.844 83.5602C122.312 83.1695 121.648 82.9742 120.852 82.9742C120.258 82.9742 119.711 83.0992 119.211 83.3492C118.719 83.5992 118.293 83.9586 117.934 84.4274C117.582 84.8883 117.309 85.4391 117.113 86.0797C116.926 86.7125 116.832 87.4156 116.832 88.1891V88.693C116.832 89.3961 116.934 90.0524 117.137 90.6617C117.348 91.2633 117.645 91.7945 118.027 92.2555C118.418 92.7164 118.879 93.0758 119.41 93.3336C119.941 93.5914 120.527 93.7203 121.168 93.7203C121.918 93.7203 122.582 93.5836 123.16 93.3102C123.738 93.0289 124.258 92.5875 124.719 91.9859L125.598 92.6656C125.324 93.0719 124.98 93.4469 124.566 93.7906C124.16 94.1344 123.672 94.4078 123.102 94.6109C122.531 94.8141 121.867 94.9156 121.109 94.9156ZM143.082 82.0016V83.2203H135.664V82.0016H143.082ZM135.98 82.0016V94.6813H134.586V82.0016H135.98ZM144.23 82.0016V94.6813H142.824V82.0016H144.23ZM152.891 94.9156C152.062 94.9156 151.301 94.7633 150.605 94.4586C149.918 94.1539 149.316 93.7242 148.801 93.1695C148.293 92.6149 147.898 91.9586 147.617 91.2008C147.344 90.4352 147.207 89.5992 147.207 88.693V88.1891C147.207 87.2125 147.352 86.3297 147.641 85.5406C147.93 84.7516 148.328 84.0758 148.836 83.5133C149.344 82.9508 149.922 82.5211 150.57 82.2242C151.227 81.9195 151.914 81.7672 152.633 81.7672C153.438 81.7672 154.152 81.9117 154.777 82.2008C155.402 82.482 155.926 82.8844 156.348 83.4078C156.777 83.9234 157.102 84.5367 157.32 85.2477C157.539 85.9508 157.648 86.7281 157.648 87.5797V88.4352H148.051V87.2399H156.254V87.0758C156.238 86.3649 156.094 85.7008 155.82 85.0836C155.555 84.4586 155.156 83.9508 154.625 83.5602C154.094 83.1695 153.43 82.9742 152.633 82.9742C152.039 82.9742 151.492 83.0992 150.992 83.3492C150.5 83.5992 150.074 83.9586 149.715 84.4274C149.363 84.8883 149.09 85.4391 148.895 86.0797C148.707 86.7125 148.613 87.4156 148.613 88.1891V88.693C148.613 89.3961 148.715 90.0524 148.918 90.6617C149.129 91.2633 149.426 91.7945 149.809 92.2555C150.199 92.7164 150.66 93.0758 151.191 93.3336C151.723 93.5914 152.309 93.7203 152.949 93.7203C153.699 93.7203 154.363 93.5836 154.941 93.3102C155.52 93.0289 156.039 92.5875 156.5 91.9859L157.379 92.6656C157.105 93.0719 156.762 93.4469 156.348 93.7906C155.941 94.1344 155.453 94.4078 154.883 94.6109C154.312 94.8141 153.648 94.9156 152.891 94.9156ZM165.09 93.7086C165.684 93.7086 166.238 93.5992 166.754 93.3805C167.277 93.1539 167.707 92.8219 168.043 92.3844C168.387 91.9391 168.582 91.3961 168.629 90.7555H169.965C169.926 91.5602 169.68 92.2789 169.227 92.9117C168.781 93.5367 168.195 94.0289 167.469 94.3883C166.75 94.7399 165.957 94.9156 165.09 94.9156C164.207 94.9156 163.426 94.7555 162.746 94.4352C162.074 94.1149 161.512 93.6695 161.059 93.0992C160.605 92.5211 160.262 91.8492 160.027 91.0836C159.801 90.3102 159.688 89.4781 159.688 88.5875V88.0953C159.688 87.2047 159.801 86.3766 160.027 85.6109C160.262 84.8375 160.605 84.1656 161.059 83.5953C161.512 83.0172 162.074 82.568 162.746 82.2477C163.418 81.9274 164.195 81.7672 165.078 81.7672C165.984 81.7672 166.797 81.9508 167.516 82.318C168.242 82.6852 168.82 83.2047 169.25 83.8766C169.688 84.5484 169.926 85.3453 169.965 86.2672H168.629C168.59 85.5875 168.41 85.0016 168.09 84.5094C167.77 84.0172 167.348 83.6383 166.824 83.3727C166.301 83.107 165.719 82.9742 165.078 82.9742C164.359 82.9742 163.746 83.1149 163.238 83.3961C162.73 83.6695 162.316 84.0484 161.996 84.5328C161.684 85.0094 161.453 85.5563 161.305 86.1734C161.156 86.7828 161.082 87.4234 161.082 88.0953V88.5875C161.082 89.2672 161.152 89.9156 161.293 90.5328C161.441 91.1422 161.672 91.6852 161.984 92.1617C162.305 92.6383 162.719 93.0172 163.227 93.2984C163.742 93.5719 164.363 93.7086 165.09 93.7086ZM181.438 87.6734V88.8688H173.914V87.6734H181.438ZM174.277 82.0016V94.6813H172.883V82.0016H174.277ZM182.516 82.0016V94.6813H181.109V82.0016H182.516ZM187.766 92.4078L194.621 82.0016H196.027V94.6813H194.621V84.275L187.766 94.6813H186.383V82.0016H187.766V92.4078Z" fill="black"/>
<path id="Logo_2" d="M137.958 0L215 200H155.875L145.125 164.286H71.6667L59.125 200H0L78.8333 0H137.958Z" fill="#0CB673" fill-opacity="0.3"/>
</g>
</g>
<defs>
<filter id="filter0_d_0_1" x="-150" y="-10" width="600" height="220" filterUnits="userSpaceOnUse" color-interpolation-filters="sRGB">
<feFlood flood-opacity="0" result="BackgroundImageFix"/>
<feColorMatrix in="SourceAlpha" type="matrix" values="0 0 0 0 0 0 0 0 0 0 0 0 0 0 0 0 0 0 127 0" result="hardAlpha"/>
<feMorphology radius="2" operator="dilate" in="SourceAlpha" result="effect1_dropShadow_0_1"/>
<feOffset/>
<feGaussianBlur stdDeviation="4"/>
<feComposite in2="hardAlpha" operator="out"/>
<feColorMatrix type="matrix" values="0 0 0 0 0.109804 0 0 0 0 0.152941 0 0 0 0 0.298039 0 0 0 1 0"/>
<feBlend mode="normal" in2="BackgroundImageFix" result="effect1_dropShadow_0_1"/>
<feBlend mode="normal" in="SourceGraphic" in2="effect1_dropShadow_0_1" result="shape"/>
</filter>
<linearGradient id="paint0_linear_0_1" x1="-14" y1="32" x2="246" y2="32" gradientUnits="userSpaceOnUse">
<stop stop-color="#05AC6A"/>
<stop offset="0.328125" stop-color="#C5C6C5"/>
<stop offset="1" stop-color="#C5C6C5"/>
</linearGradient>
<clipPath id="clip0_0_1">
<rect width="1920" height="1080" fill="white" transform="translate(-666 -467)"/>
</clipPath>
</defs>
</svg>
