<svg width="64" height="65" viewBox="0 0 64 65" fill="none" xmlns="http://www.w3.org/2000/svg">
<circle cx="32" cy="32.2" r="32" fill="#0CB673" fill-opacity="0.3"/>
<path d="M46.2828 18.2C49.8194 21.8075 52 26.7491 52 32.2C52 37.7156 49.7672 42.7098 46.1564 46.328M18 46.483C14.2973 42.853 12 37.7948 12 32.2C12 26.67 14.2444 21.6641 17.8721 18.0437" stroke="#253053" stroke-width="2" stroke-linecap="round" stroke-linejoin="round"/>
<path d="M40.5698 24.2879C42.6916 26.3175 44 29.0976 44 32.1644C44 35.2676 42.6604 38.0772 40.4938 40.1128M23.6 40.2C21.3784 38.1578 20 35.312 20 32.1644C20 29.0532 21.3467 26.2368 23.5232 24.2" stroke="#253053" stroke-width="2" stroke-linecap="round" stroke-linejoin="round"/>
<path d="M35.3126 29.1022C37.1042 30.4176 38 31.0752 38 32.2C38 33.3248 37.1042 33.9824 35.3126 35.2978C34.8182 35.6608 34.3276 36.0028 33.8768 36.2876C33.4814 36.5376 33.0336 36.796 32.5698 37.0498C30.7826 38.028 29.8888 38.5172 29.0874 37.9756C28.2858 37.434 28.213 36.3004 28.0674 34.0332C28.0262 33.392 28 32.7634 28 32.2C28 31.6366 28.0262 31.008 28.0674 30.3668C28.213 28.0995 28.2858 26.9659 29.0874 26.4244C29.8888 25.8829 30.7826 26.372 32.5698 27.3502C33.0336 27.6039 33.4814 27.8624 33.8768 28.1124C34.3276 28.3972 34.8182 28.7392 35.3126 29.1022Z" stroke="#253053" stroke-width="2"/>
</svg>
