<svg width="22" height="18" viewBox="0 0 22 18" fill="none" xmlns="http://www.w3.org/2000/svg">
<g clip-path="url(#clip0_0_1)">
<rect width="1920" height="1080" transform="translate(-916 -491)" fill="#E3E3E3"/>
<path d="M114.836 589L57 396L-338.5 396L-406 589H-724L-669.5 450.5L1004 -491V88.5L114.836 589Z" fill="#05AC6A" fill-opacity="0.15"/>
<path d="M18.4529 -491L433.069 589H114.875L57.0219 396.143H-338.31L-405.806 589H-724L-299.741 -491H18.4529Z" fill="#0CB673" fill-opacity="0.3"/>
<g filter="url(#filter0_d_0_1)">
<rect x="-390" y="-24" width="580" height="200" rx="8" fill="#FFFDFD"/>
</g>
<path d="M19.4907 3.15918C19.4907 3.15918 20.9907 4.95918 20.9907 9.15918C20.9907 13.3592 19.4907 15.1592 19.4907 15.1592" stroke="#253053" stroke-linecap="round"/>
<path d="M17.4907 6.15918C17.4907 6.15918 17.9907 7.05918 17.9907 9.15918C17.9907 11.2592 17.4907 12.1592 17.4907 12.1592" stroke="#253053" stroke-linecap="round"/>
<path d="M1.44935 5.73597C1.73554 5.20481 2.28311 4.6896 2.83069 4.43625C3.43002 4.15897 4.11698 4.15897 5.4909 4.15897C6.00297 4.15897 6.259 4.15897 6.50701 4.11709C6.75219 4.07568 6.99128 4.00396 7.21876 3.90356C7.44887 3.80201 7.66262 3.66107 8.09013 3.3792L8.30907 3.23484C10.852 1.55816 12.1235 0.719811 13.1908 1.08405C13.3955 1.15388 13.5936 1.25469 13.7705 1.37902C14.6932 2.02747 14.7633 3.53617 14.9035 6.55358C14.9554 7.67088 14.9908 8.62708 14.9908 9.15898C14.9908 9.69088 14.9554 10.6471 14.9035 11.7644C14.7633 14.7818 14.6932 16.2905 13.7705 16.9389C13.5936 17.0633 13.3955 17.1641 13.1908 17.2339C12.1235 17.5981 10.852 16.7598 8.30906 15.0831L8.09013 14.9388C7.66262 14.6569 7.44887 14.5159 7.21876 14.4144C6.99128 14.314 6.75219 14.2423 6.50701 14.2009C6.259 14.159 6.00297 14.159 5.4909 14.159C4.11698 14.159 3.43002 14.159 2.83069 13.8817C2.28311 13.6284 1.73554 13.1131 1.44935 12.582C1.13612 12.0006 1.09928 11.3962 1.0256 10.1874C1.01468 10.0082 1.00597 9.83138 1 9.65898" stroke="#253053" stroke-linecap="round"/>
</g>
<defs>
<filter id="filter0_d_0_1" x="-400" y="-34" width="600" height="220" filterUnits="userSpaceOnUse" color-interpolation-filters="sRGB">
<feFlood flood-opacity="0" result="BackgroundImageFix"/>
<feColorMatrix in="SourceAlpha" type="matrix" values="0 0 0 0 0 0 0 0 0 0 0 0 0 0 0 0 0 0 127 0" result="hardAlpha"/>
<feMorphology radius="2" operator="dilate" in="SourceAlpha" result="effect1_dropShadow_0_1"/>
<feOffset/>
<feGaussianBlur stdDeviation="4"/>
<feComposite in2="hardAlpha" operator="out"/>
<feColorMatrix type="matrix" values="0 0 0 0 0.109804 0 0 0 0 0.152941 0 0 0 0 0.298039 0 0 0 1 0"/>
<feBlend mode="normal" in2="BackgroundImageFix" result="effect1_dropShadow_0_1"/>
<feBlend mode="normal" in="SourceGraphic" in2="effect1_dropShadow_0_1" result="shape"/>
</filter>
<clipPath id="clip0_0_1">
<rect width="1920" height="1080" fill="white" transform="translate(-916 -491)"/>
</clipPath>
</defs>
</svg>
